<?xml version="1.0" encoding="utf-8"?>
<!-- Generator: Adobe Illustrator 24.2.1, SVG Export Plug-In . SVG Version: 6.00 Build 0)  -->
<svg version="1.1" id="Layer_1" xmlns="http://www.w3.org/2000/svg" xmlns:xlink="http://www.w3.org/1999/xlink" x="0px" y="0px"
	 viewBox="0 0 344 200" style="enable-background:new 0 0 344 200;" xml:space="preserve">
<style type="text/css">
	.st0{fill:none;stroke:#D64D71;stroke-width:5;stroke-linecap:round;stroke-linejoin:round;stroke-miterlimit:10;}
	.st1{fill:#FFFFFF;}
	.st2{fill:#D9042B;}
</style>
<g>
	<path class="st0" d="M79.8,136.8l0.2,13.5v7.9c-4.2,0.7-9,1.1-14.3,1.1c-5.3,0-10-0.4-14-1.1v-7.9l0.2-13.5L38,137H11
		c-4.1-6.5-6.2-12-6.2-16.4c0-4.4,1.1-9,3.4-13.8l30.2-71.6c4.4-0.7,9.4-0.6,15,0.6s9.5,2.9,11.6,5.4L52.4,71.5
		c-8,19.7-14.8,33.7-20.4,41.8l0.6,0.9c4.5-0.5,10.9-0.9,19.1-1.1v-9.9c0-7.2,1.8-12.9,5.3-17c3.6-4.1,8.5-6.2,14.9-6.2h6.7L80,81
		v18.2l-0.2,13.7l10.7-0.2h5.1c0.5,3,0.7,6.7,0.7,11.1c0,4.4-0.6,8.8-1.9,13H79.8z"/>
	<path class="st0" d="M119.1,46.2c8.5-8.1,18.7-12.2,30.7-12.2c12,0,22.2,4.1,30.7,12.2c5.4,6,8.9,13.1,10.7,21.3
		c1.7,8.2,2.6,18.2,2.6,30.1c0,11.9-0.9,21.9-2.6,30.1c-1.7,8.2-5.3,15.3-10.7,21.3c-8.5,8.1-18.7,12.2-30.7,12.2
		c-12,0-22.2-4.1-30.7-12.2c-5.4-6-8.9-13.1-10.7-21.3c-1.7-8.2-2.6-18.2-2.6-30.1c0-11.9,0.9-21.9,2.6-30.1
		C110.2,59.3,113.7,52.2,119.1,46.2z M139,131.4c1.9,4.7,5.5,7.1,10.7,7.1c2.9,0,5.2-0.7,7.1-2.1c1.8-1.4,3.3-3.6,4.3-6.8
		c1.1-3.2,1.8-7.4,2.2-12.6s0.6-11.7,0.6-19.6c0-7.8-0.2-14.4-0.6-19.6c-0.4-5.2-1.1-9.4-2.2-12.6c-1.1-3.2-2.5-5.4-4.3-6.8
		c-1.8-1.4-4.2-2.1-7.1-2.1c-2.9,0-5.3,0.7-7.2,2.1c-1.9,1.4-3.3,3.6-4.3,6.8c-1,3.2-1.7,7.4-2.1,12.6c-0.4,5.2-0.6,11.7-0.6,19.6
		C135.6,114.4,136.7,125.7,139,131.4z"/>
	<path class="st0" d="M278.3,136.8l0.2,13.5v7.9c-4.2,0.7-9,1.1-14.3,1.1c-5.3,0-10-0.4-14-1.1v-7.9l0.2-13.5l-13.9,0.2h-27
		c-4.1-6.5-6.2-12-6.2-16.4c0-4.4,1.1-9,3.4-13.8l30.2-71.6c4.4-0.7,9.4-0.6,15,0.6s9.5,2.9,11.6,5.4L251,71.5
		c-8,19.7-14.8,33.7-20.4,41.8l0.6,0.9c4.5-0.5,10.9-0.9,19.1-1.1v-9.9c0-7.2,1.8-12.9,5.3-17c3.6-4.1,8.5-6.2,14.9-6.2h6.7l1.3,1.1
		v18.2l-0.2,13.7l10.7-0.2h5.1c0.5,3,0.7,6.7,0.7,11.1c0,4.4-0.6,8.8-1.9,13H278.3z"/>
</g>
<g>
	<path class="st1" d="M325.3,178.7c5.7-6.1,13.9-19.7,13.9-34.9V91.3c0-2.7-2.1-4.8-4.8-4.8c-0.8,0-1.7,0.2-2.4,0.6
		c-9.9,5.6-21.2,8.6-32.7,8.6h-0.5c-11.3-0.1-22.4-3.1-32.2-8.6c-2.3-1.3-5.3-0.5-6.6,1.8c-0.4,0.7-0.6,1.5-0.6,2.4v52.5
		c0,15.9,7.5,31.1,20.1,40.6c11.7,8.8,27.8,8.8,39.5,0C320,183.7,325.3,178.7,325.3,178.7z"/>
	<path class="st2" d="M325.3,178.7c5.7-6.1,13.9-19.7,13.9-34.9V91.3c0-2.7-2.1-4.8-4.8-4.8c-0.8,0-1.7,0.2-2.4,0.6
		c-9.9,5.6-21.2,8.6-32.7,8.6h-0.5c-11.3-0.1-22.4-3.1-32.2-8.6c-2.3-1.3-5.3-0.5-6.6,1.8c-0.4,0.7-0.6,1.5-0.6,2.4v52.5
		c0,15.9,7.5,31.1,20.1,40.6c11.7,8.8,27.8,8.8,39.5,0C320,183.7,325.3,178.7,325.3,178.7z M316.6,181.1c-10.2,7.7-24.3,7.7-34.5,0
		c-11.6-8.7-18.5-22.7-18.5-37.3V91.3c0-0.2,0.1-0.5,0.3-0.6c0.1-0.1,0.2-0.1,0.4-0.1c0.1,0,0.2,0,0.3,0.1
		c10.4,5.9,22.2,9.1,34.2,9.2h0.5c12.2,0,24.1-3.2,34.7-9.1c0.2-0.1,0.5-0.1,0.7,0c0.2,0.1,0.4,0.4,0.3,0.6v52.5
		C335.1,158.4,328.2,172.4,316.6,181.1z M293.8,123.5c0.3-0.6,0.3-1.3,0-1.8c-3.1-6.3-10.7-8.9-17-5.8c-2.5,1.2-4.5,3.3-5.8,5.8
		c-0.3,0.6-0.3,1.3,0,1.8c3.1,6.3,10.7,8.9,17,5.8C290.5,128,292.6,126,293.8,123.5z M275.2,122.5c2.6-4,7.9-5.1,11.9-2.5
		c1,0.7,1.8,1.5,2.5,2.5c-2.6,4-7.9,5.1-11.9,2.5C276.7,124.4,275.9,123.5,275.2,122.5z M316.3,114.5c-4.8,0-9.3,2.8-11.4,7.1
		c-0.3,0.6-0.3,1.3,0,1.8c3.1,6.3,10.7,8.9,17,5.8c2.5-1.2,4.5-3.3,5.8-5.8c0.3-0.6,0.3-1.3,0-1.8
		C325.6,117.3,321.1,114.5,316.3,114.5z M316.3,126.4c-2.9,0-5.6-1.5-7.2-3.9c2.6-4,7.9-5.1,11.9-2.5c1,0.7,1.8,1.5,2.5,2.5
		C321.9,125,319.2,126.4,316.3,126.4z M280,165.3c0.6,0.4,1.5,0.4,2.1,0.1c5.3-2.9,11.2-4.4,17.2-4.4h0.1c6,0,11.9,1.5,17.2,4.4
		c1,0.5,2.3,0.1,2.8-0.9c0.2-0.4,0.3-0.7,0.2-1.2c-0.4-5.1-2.8-9.8-6.5-13.3c-3.7-3.5-8.5-5.4-13.6-5.5h-0.2
		c-10.4,0-19.3,8.2-20.3,18.8C279,164.2,279.4,164.9,280,165.3L280,165.3z M299.6,148.7c6.9,0.1,13,4.8,15.2,11.2
		c-4.8-2-10.1-3.1-15.3-3.1h-0.1c-5.3,0-10.5,1-15.4,3.1C286.3,153.4,292.5,148.7,299.6,148.7z"/>
</g>
</svg>
