<?xml version="1.0" encoding="utf-8"?>
<!-- Generator: Adobe Illustrator 24.2.0, SVG Export Plug-In . SVG Version: 6.00 Build 0)  -->
<svg version="1.1" id="Layer_1" xmlns="http://www.w3.org/2000/svg" xmlns:xlink="http://www.w3.org/1999/xlink" x="0px" y="0px"
	 viewBox="0 0 512 512" style="enable-background:new 0 0 512 512;" xml:space="preserve">
<style type="text/css">
	.st0{fill:#D9042B;}
</style>
<path class="st0" d="M503.3,120.4c-5.4-3.2-12-3.2-17.4-0.2c-36.2,20.4-77.1,31.2-118.6,31.3h-1.8c-25.9-0.2-51.6-4.6-76.1-13V31.9
	c0-9.7-7.8-17.5-17.5-17.5c-3,0-6,0.8-8.6,2.2C227.2,37.1,186.3,47.9,144.7,48H143c-41-0.4-81.2-11.2-116.9-31.3
	C17.7,11.9,7,14.9,2.3,23.3C0.8,25.9,0,28.9,0,31.9v190.7c0,57.7,27.3,112.8,73,147.3c42.4,32.1,101,32.1,143.4,0
	c3.3-2.5,6.5-5.1,9.6-7.8c8.8,44.4,33.5,84.1,69.5,111.4c42.4,32.1,101,32.1,143.4,0C484.7,439,512,384,512,326.2V135.5
	C512,129.3,508.7,123.5,503.3,120.4z M288.6,240c5.1-3.4,11-5.2,17.1-5.2c10.5,0,20.4,5.3,26.1,14.2c-9.4,14.4-28.6,18.5-43,9.1
	c-0.9-0.6-1.7-1.2-2.5-1.8C287.3,250.9,288.1,245.5,288.6,240z M207.4,358c-37.1,28.1-88.2,28.1-125.3,0
	C40.1,326.3,15,275.7,15,222.6V31.9c0-0.9,0.5-1.7,1.2-2.2c0.4-0.2,0.8-0.3,1.3-0.4c0.4,0,0.9,0.1,1.2,0.3
	C56.6,51.1,99.4,62.6,142.9,63h1.8c44.2-0.1,87.5-11.6,126-33.2c0.8-0.5,1.7-0.5,2.5,0c0.8,0.4,1.3,1.3,1.2,2.2v190.7
	C274.4,275.7,249.4,326.3,207.4,358z M497,326.2c0,53-25.1,103.6-67.1,135.3c-37,28.1-88.2,28.1-125.3,0
	c-35.8-27.2-59.3-67.5-65.5-112.1c20.6-22,35.5-48.6,43.6-77.6c22,12.8,50.2,5.2,63-16.8c0.5-0.9,1-1.8,1.5-2.8
	c1.1-2.1,1.1-4.6,0-6.7c-10.5-21.3-35.5-31.2-57.8-22.8v-68.5c24.6,7.9,50.2,12,76,12.2c44.8,0.2,88.9-11.2,127.9-33.2
	c0.8-0.5,1.7-0.5,2.5,0c0.8,0.4,1.3,1.3,1.2,2.2V326.2z M124.6,148.7c1-2.1,1-4.6,0-6.7c-11.3-22.9-39-32.3-61.9-21
	c-9.1,4.5-16.5,11.9-21,21c-1,2.1-1,4.6,0,6.7c11.3,22.9,39,32.3,61.9,21C112.7,165.3,120.1,157.9,124.6,148.7z M57.1,145.4
	c9.4-14.4,28.7-18.5,43.1-9.1c3.6,2.4,6.7,5.5,9.1,9.1c-9.4,14.4-28.7,18.5-43.1,9.1C62.6,152.1,59.5,149,57.1,145.4z M206.2,116.2
	c-17.6,0-33.7,10-41.4,25.8c-1.1,2.1-1.1,4.6,0,6.7c11.3,22.9,39,32.3,61.8,21c9.1-4.5,16.5-11.9,21-21c1-2.1,1-4.6,0-6.7
	C239.9,126.2,223.8,116.2,206.2,116.2z M206.2,159.5c-10.5,0-20.4-5.3-26.1-14.1c9.4-14.4,28.7-18.5,43.1-9.1
	c3.6,2.4,6.7,5.5,9.1,9.1C226.6,154.2,216.8,159.5,206.2,159.5z M428.8,219.8c-17.6,0-33.7,10-41.5,25.8c-1,2.1-1,4.6,0,6.7
	c11.3,22.9,39,32.3,61.9,21c9.1-4.5,16.5-11.9,21-21c1-2.1,1-4.6,0-6.7C462.5,229.8,446.4,219.8,428.8,219.8L428.8,219.8z
	 M428.8,263.1c-10.5,0-20.3-5.3-26.1-14.1c9.4-14.4,28.7-18.5,43.1-9.1c3.6,2.4,6.7,5.5,9.1,9.1
	C449.1,257.8,439.3,263.1,428.8,263.1z M367.3,329.1h-0.9c-18.3,0.3-35.9,7.4-49.2,20c-13.5,12.7-21.9,29.8-23.5,48.3
	c-0.4,4.1,2.7,7.8,6.8,8.1c1.5,0.1,3-0.2,4.2-0.9c19.2-10.4,40.6-15.8,62.4-15.9h0.2c21.9,0,43.4,5.5,62.6,15.9
	c3.6,2,8.2,0.7,10.2-2.9c0.7-1.3,1.1-2.8,0.9-4.4C437.5,359,405.2,329.1,367.3,329.1L367.3,329.1z M367.3,373.7H367
	c-19.1,0-37.9,3.8-55.5,11.1c8-23.4,30-40.4,55.1-40.7c25.8-0.3,48.4,16.7,56.5,40.7C405.4,377.5,386.4,373.8,367.3,373.7
	L367.3,373.7z M215,226.7c-2.3-1.5-5.3-1.6-7.7-0.3c-19.2,10.4-40.8,15.9-62.6,15.9h-0.2c-21.8-0.1-43.2-5.5-62.4-15.9
	c-3.7-1.9-8.2-0.5-10.2,3.1c-0.7,1.3-1,2.7-0.8,4.2c1.6,18.4,10,35.6,23.5,48.3c13.3,12.6,30.9,19.7,49.3,20h0.9
	c37.9,0,70.2-29.8,73.7-68.3C218.7,230.9,217.4,228.3,215,226.7L215,226.7z M144,287c-25.1-0.3-47.1-17.3-55.1-40.7
	c17.6,7.3,36.5,11.1,55.5,11.1h0.3c19.2,0,38.1-3.8,55.8-11.1C192.4,270.2,169.8,287.3,144,287z"/>
</svg>
