<?xml version="1.0" encoding="utf-8"?>
<!-- Generator: Adobe Illustrator 24.2.1, SVG Export Plug-In . SVG Version: 6.00 Build 0)  -->
<svg version="1.1" id="Layer_1" xmlns="http://www.w3.org/2000/svg" xmlns:xlink="http://www.w3.org/1999/xlink" x="0px" y="0px"
	 viewBox="0 0 368 200" style="enable-background:new 0 0 368 200;" xml:space="preserve">
<style type="text/css">
	.st0{fill:none;stroke:#D9042B;stroke-width:5;stroke-miterlimit:10;}
	.st1{fill:#FFFFFF;}
	.st2{fill:#D9042B;}
</style>
<g>
	<path class="st0" d="M21.4,120.6C10.3,111.4,4.7,96.2,4.7,75c0-9.1,1.1-17.1,3.2-24c2.1-6.9,5.2-12.7,9.2-17.4
		c4-4.7,8.8-8.2,14.6-10.6c5.7-2.4,12.1-3.6,19.3-3.6s13.6,1.2,19.4,3.6C76.1,25.4,81,29,84.9,33.7c4,4.7,7.1,10.5,9.2,17.4
		c2.1,6.9,3.2,14.9,3.2,23.9s-1.1,17-3.2,23.9c-2.1,6.9-5.2,12.7-9.2,17.4c-4,4.7-8.9,8.2-14.6,10.6c-5.8,2.4-12.2,3.6-19.4,3.6
		C39.1,130.4,29.3,127.2,21.4,120.6z M34,99.2c2.8,8.1,8.5,12.1,17,12.1c4.3,0,7.7-1.1,10.3-3.2c2.6-2.1,4.7-4.8,6.2-8.1
		c1.5-3.3,2.5-6.9,3-11c0.5-4,0.8-8,0.8-12c0-3.6-0.1-7.7-0.4-12.1c-0.3-4.5-1-8.6-2.3-12.5c-1.2-3.9-3.2-7.2-5.9-9.8
		c-2.7-2.6-6.6-4-11.8-4c-5,0-8.8,1.3-11.4,3.8c-2.6,2.5-4.6,5.7-5.9,9.4c-1.3,3.7-2.1,7.7-2.4,11.9c-0.3,4.2-0.5,7.9-0.5,11.1
		c0,4.8,0.2,9,0.7,12.8C31.9,91.4,32.7,95.2,34,99.2z"/>
	<path class="st0" d="M166.3,57.3c7.5,7.5,11.2,18.2,11.2,32.1c0,6.2-0.8,11.9-2.4,17c-1.6,5.1-3.9,9.4-7,13
		c-3.1,3.6-6.8,6.3-11.3,8.2c-4.5,1.9-9.6,2.9-15.4,2.9c-5.8,0-10.9-1-15.3-3c-4.4-2-8.1-4.7-11.2-8.3c-3.1-3.6-5.4-7.9-6.9-13
		c-1.6-5.1-2.3-10.7-2.3-16.8c0-6.2,0.8-11.9,2.3-16.9c1.6-5,3.8-9.4,6.8-13c3-3.6,6.7-6.4,11.2-8.4c4.5-2,9.6-3,15.4-3
		C151.7,48.1,160,51.2,166.3,57.3z M141.5,66.3c-2.3,0-4.2,0.5-5.6,1.6c-1.4,1.1-2.5,2.6-3.4,4.4c-0.8,1.9-1.4,4-1.7,6.5
		c-0.3,2.4-0.5,5.1-0.5,7.9c0,4.4,0.1,8.1,0.4,11.3c0.3,3.2,0.8,5.8,1.6,7.9c0.8,2.1,1.9,3.7,3.3,4.7c1.4,1,3.3,1.6,5.6,1.6
		c4.6,0,7.6-2,9.1-6c1.5-4,2.2-9.7,2.2-17c0-7.5-0.7-13.2-2.2-17C148.8,68.3,145.9,66.3,141.5,66.3z"/>
	<path class="st0" d="M224.6,129.7c-4.8,0-9.5-1.1-14.3-3.3v20.7c0,5.4-1,9.2-3,11.4c-2,2.2-5.4,3.3-10.4,3.3h-9.3l-1.1-1.1V50.4
		l1.1-1.1h6.4c5.9,0,10.3,2.5,13.2,7.6c5.9-5.9,13.1-8.9,21.6-8.9c4.3,0,8.2,1,11.5,2.9c3.3,1.9,6.1,4.6,8.5,8.2s4.1,7.8,5.3,12.8
		c1.2,5,1.8,10.6,1.8,16.8c0,6.2-0.8,11.9-2.4,17c-1.6,5.1-3.8,9.4-6.6,12.9c-2.8,3.5-6.1,6.3-9.8,8.2
		C233.1,128.7,229,129.7,224.6,129.7z M221.7,67.6c-4.4,0-8.1,2.1-11.4,6.2V108c3.9,2.4,7.3,3.6,10.1,3.6c7.1,0,10.6-7.8,10.6-23.5
		C231,74.4,227.9,67.6,221.7,67.6z"/>
	<path class="st0" d="M261,122.8c0.1-2.7,0.8-5.7,2.1-8.9c1.3-3.2,2.8-5.8,4.6-7.6c8.3,4.4,15.5,6.5,21.6,6.5c2.9,0,5.1-0.5,6.7-1.5
		c1.6-1,2.3-2.3,2.3-4c0-3.1-2.4-5.4-7.2-7l-8.6-3.3c-13-4.8-19.5-12.6-19.5-23.3c0-7.9,2.7-14.1,8.2-18.8c5.4-4.6,12.8-6.9,22-6.9
		c4.6,0,9.6,0.7,15.1,1.9c5.5,1.3,10,2.8,13.5,4.6c0.2,2.9-0.4,6.1-1.7,9.6c-1.4,3.5-3,5.9-5,7.4c-8.7-3.9-16-5.9-21.8-5.9
		c-2.1,0-3.7,0.5-4.7,1.4s-1.6,2.1-1.6,3.6c0,2.5,2,4.5,5.9,5.9l9.6,3.4c13.8,4.9,20.7,13.2,20.7,25.1c0,7.8-2.9,14-8.6,18.5
		c-5.7,4.6-13.8,6.8-24.4,6.8S270,127.9,261,122.8z"/>
</g>
<g>
	<path class="st1" d="M349.3,178.7c5.7-6.1,13.9-19.7,13.9-34.9V91.3c0-2.7-2.1-4.8-4.8-4.8c-0.8,0-1.7,0.2-2.4,0.6
		c-9.9,5.6-21.2,8.6-32.7,8.6h-0.5c-11.3-0.1-22.4-3.1-32.2-8.6c-2.3-1.3-5.3-0.5-6.6,1.8c-0.4,0.7-0.6,1.5-0.6,2.4v52.5
		c0,15.9,7.5,31.1,20.1,40.6c11.7,8.8,27.8,8.8,39.5,0C344,183.7,349.3,178.7,349.3,178.7z"/>
	<path class="st2" d="M349.3,178.7c5.7-6.1,13.9-19.7,13.9-34.9V91.3c0-2.7-2.1-4.8-4.8-4.8c-0.8,0-1.7,0.2-2.4,0.6
		c-9.9,5.6-21.2,8.6-32.7,8.6h-0.5c-11.3-0.1-22.4-3.1-32.2-8.6c-2.3-1.3-5.3-0.5-6.6,1.8c-0.4,0.7-0.6,1.5-0.6,2.4v52.5
		c0,15.9,7.5,31.1,20.1,40.6c11.7,8.8,27.8,8.8,39.5,0C344,183.7,349.3,178.7,349.3,178.7z M340.6,181.1c-10.2,7.7-24.3,7.7-34.5,0
		c-11.6-8.7-18.5-22.7-18.5-37.3V91.3c0-0.2,0.1-0.5,0.3-0.6c0.1-0.1,0.2-0.1,0.4-0.1c0.1,0,0.2,0,0.3,0.1
		c10.4,5.9,22.2,9.1,34.2,9.2h0.5c12.2,0,24.1-3.2,34.7-9.1c0.2-0.1,0.5-0.1,0.7,0s0.4,0.4,0.3,0.6v52.5
		C359.1,158.4,352.2,172.4,340.6,181.1z M317.8,123.5c0.3-0.6,0.3-1.3,0-1.8c-3.1-6.3-10.7-8.9-17-5.8c-2.5,1.2-4.5,3.3-5.8,5.8
		c-0.3,0.6-0.3,1.3,0,1.8c3.1,6.3,10.7,8.9,17,5.8C314.5,128,316.6,126,317.8,123.5z M299.2,122.5c2.6-4,7.9-5.1,11.9-2.5
		c1,0.7,1.8,1.5,2.5,2.5c-2.6,4-7.9,5.1-11.9,2.5C300.7,124.4,299.9,123.5,299.2,122.5z M340.3,114.5c-4.8,0-9.3,2.8-11.4,7.1
		c-0.3,0.6-0.3,1.3,0,1.8c3.1,6.3,10.7,8.9,17,5.8c2.5-1.2,4.5-3.3,5.8-5.8c0.3-0.6,0.3-1.3,0-1.8
		C349.6,117.3,345.1,114.5,340.3,114.5z M340.3,126.4c-2.9,0-5.6-1.5-7.2-3.9c2.6-4,7.9-5.1,11.9-2.5c1,0.7,1.8,1.5,2.5,2.5
		C345.9,125,343.2,126.4,340.3,126.4z M304,165.3c0.6,0.4,1.5,0.4,2.1,0.1c5.3-2.9,11.2-4.4,17.2-4.4h0.1c6,0,11.9,1.5,17.2,4.4
		c1,0.5,2.3,0.1,2.8-0.9c0.2-0.4,0.3-0.7,0.2-1.2c-0.4-5.1-2.8-9.8-6.5-13.3s-8.5-5.4-13.6-5.5h-0.2c-10.4,0-19.3,8.2-20.3,18.8
		C303,164.2,303.4,164.9,304,165.3L304,165.3z M323.6,148.7c6.9,0.1,13,4.8,15.2,11.2c-4.8-2-10.1-3.1-15.3-3.1h-0.1
		c-5.3,0-10.5,1-15.4,3.1C310.3,153.4,316.5,148.7,323.6,148.7z"/>
</g>
</svg>
